<svg xmlns="http://www.w3.org/2000/svg" width="29" height="30" viewBox="0 0 29 30">
    <g fill="#232323" fill-rule="evenodd">
        <path d="M23.866 5.072a13.218 13.218 0 0 0-9.417-3.927c-3.68 0-7.008 1.5-9.417 3.927a13.423 13.423 0 0 0-3.904 9.5c0 3.7 1.489 7.063 3.904 9.49 2.409 2.427 5.736 3.935 9.417 3.935 3.68 0 7.009-1.508 9.417-3.935a13.417 13.417 0 0 0 3.904-9.49c0-3.71-1.488-7.073-3.904-9.5zM14.45 0c3.993 0 7.6 1.637 10.217 4.266a14.586 14.586 0 0 1 4.232 10.305 14.58 14.58 0 0 1-4.232 10.297c-2.616 2.63-6.224 4.266-10.217 4.266-3.992 0-7.6-1.637-10.216-4.266A14.579 14.579 0 0 1 0 14.571c0-4.024 1.616-7.669 4.233-10.305C6.849 1.636 10.457 0 14.449 0z"/>
        <path d="M17.987 20.308s-.518-.624-.95-1.175c1.886-.537 2.606-1.727 2.606-1.727a8.215 8.215 0 0 1-1.656.856 9.42 9.42 0 0 1-2.087.624c-1.382.261-2.65.189-3.73-.014-.82-.16-1.525-.392-2.116-.624a8.407 8.407 0 0 1-1.05-.494c-.044-.029-.087-.043-.13-.072-.029-.015-.043-.03-.058-.044-.259-.145-.403-.246-.403-.246s.691 1.16 2.52 1.712c-.432.551-.965 1.204-.965 1.204-3.182-.101-4.391-2.205-4.391-2.205 0-4.673 2.073-8.46 2.073-8.46 2.073-1.567 4.046-1.524 4.046-1.524l.144.174c-2.592.755-3.787 1.901-3.787 1.901s.317-.174.85-.42c1.54-.683 2.764-.871 3.268-.915.086-.014.158-.029.245-.029a12.087 12.087 0 0 1 2.908-.029 11.67 11.67 0 0 1 4.333 1.393s-1.137-1.088-3.584-1.843l.201-.232s1.973-.043 4.046 1.524c0 0 2.073 3.787 2.073 8.46 0 0-1.224 2.104-4.406 2.205zm-1.44-6.776c-.82 0-1.468.725-1.468 1.61 0 .886.662 1.611 1.469 1.611.82 0 1.468-.725 1.468-1.61 0-.886-.648-1.611-1.468-1.611zm-5.254 0c-.821 0-1.469.725-1.469 1.61 0 .886.662 1.611 1.469 1.611.82 0 1.468-.725 1.468-1.61.015-.886-.648-1.611-1.468-1.611z"/>
    </g>
</svg>
