<svg xmlns="http://www.w3.org/2000/svg" width="29" height="29" viewBox="0 0 29 29">
    <g fill="#232323" fill-rule="evenodd">
        <path d="M23.82 5.023a13.246 13.246 0 0 0-9.399-3.89 13.246 13.246 0 0 0-9.399 3.89 13.24 13.24 0 0 0-3.896 9.406c0 3.666 1.485 6.996 3.896 9.4a13.255 13.255 0 0 0 9.4 3.896c3.672 0 6.995-1.493 9.398-3.897a13.235 13.235 0 0 0 3.896-9.399 13.24 13.24 0 0 0-3.896-9.406zM14.421 0A14.4 14.4 0 0 1 24.62 4.224a14.389 14.389 0 0 1 4.224 10.205c0 3.977-1.613 7.587-4.224 10.198A14.401 14.401 0 0 1 14.42 28.85a14.401 14.401 0 0 1-10.197-4.224A14.384 14.384 0 0 1 0 14.429 14.39 14.39 0 0 1 4.224 4.224 14.4 14.4 0 0 1 14.42 0z"/>
        <path d="M4.462 14.47c0 4.477 2.83 8.274 6.758 9.614.494.094.674-.22.674-.488 0-.24-.008-.878-.013-1.723-2.749.612-3.329-1.359-3.329-1.359-.45-1.17-1.097-1.482-1.097-1.482-.898-.628.068-.616.068-.616.992.072 1.513 1.045 1.513 1.045.882 1.548 2.313 1.1 2.876.841.09-.654.346-1.1.628-1.354-2.195-.255-4.502-1.125-4.502-5.008 0-1.106.386-2.01 1.018-2.719-.102-.256-.441-1.286.097-2.681 0 0 .829-.272 2.717 1.039a9.246 9.246 0 0 1 2.474-.342c.84.005 1.684.117 2.474.342 1.886-1.311 2.714-1.039 2.714-1.039.54 1.395.2 2.425.1 2.681.633.708 1.015 1.613 1.015 2.72 0 3.892-2.31 4.748-4.512 5 .354.312.67.93.67 1.875 0 1.355-.012 2.448-.012 2.78 0 .271.179.586.68.488 3.924-1.343 6.752-5.138 6.752-9.614 0-5.596-4.424-10.132-9.882-10.132-5.457 0-9.881 4.536-9.881 10.132z"/>
    </g>
</svg>
