<svg xmlns="http://www.w3.org/2000/svg" width="29" height="29" viewBox="0 0 29 29">
    <g fill="#232323" fill-rule="evenodd">
        <path d="M23.828 5.023a13.287 13.287 0 0 0-9.407-3.897 13.253 13.253 0 0 0-9.398 3.897 13.252 13.252 0 0 0-3.897 9.399c0 3.673 1.493 6.995 3.897 9.406a13.246 13.246 0 0 0 9.398 3.89 13.28 13.28 0 0 0 13.296-13.296c0-3.674-1.485-6.996-3.889-9.4zM14.421 0c3.985 0 7.586 1.613 10.198 4.224a14.368 14.368 0 0 1 4.224 10.198c0 3.984-1.613 7.585-4.224 10.197a14.369 14.369 0 0 1-10.198 4.224 14.368 14.368 0 0 1-10.197-4.224A14.368 14.368 0 0 1 0 14.422c0-3.985 1.613-7.586 4.224-10.198A14.368 14.368 0 0 1 14.421 0z"/>
        <path fill-rule="nonzero" d="M7.846 10.54a.696.696 0 0 0-.215-.576L6.04 7.98v-.296h4.94l3.82 8.666 3.358-8.666h4.71v.296l-1.36 1.35a.419.419 0 0 0-.152.395v9.918a.419.419 0 0 0 .152.395l1.328 1.35v.296h-6.683v-.297l1.376-1.382c.135-.14.135-.181.135-.395v-8.017l-3.827 10.058h-.517L8.864 11.593v6.741a.95.95 0 0 0 .247.774l1.79 2.247v.296H5.825v-.296l1.79-2.247a.917.917 0 0 0 .23-.774V10.54z"/>
    </g>
</svg>
