<svg xmlns="http://www.w3.org/2000/svg" width="29" height="30" viewBox="0 0 29 30">
    <g fill="#232323" fill-rule="evenodd">
        <path d="M23.866 5.072a13.218 13.218 0 0 0-9.417-3.927c-3.68 0-7.008 1.5-9.417 3.927a13.423 13.423 0 0 0-3.904 9.5c0 3.7 1.489 7.063 3.904 9.49 2.409 2.427 5.736 3.935 9.417 3.935 3.68 0 7.009-1.508 9.417-3.935a13.417 13.417 0 0 0 3.904-9.49c0-3.71-1.488-7.073-3.904-9.5zM14.45 0c3.993 0 7.6 1.637 10.217 4.266a14.586 14.586 0 0 1 4.232 10.305 14.58 14.58 0 0 1-4.232 10.297c-2.616 2.63-6.224 4.266-10.217 4.266-3.992 0-7.6-1.637-10.216-4.266A14.579 14.579 0 0 1 0 14.571c0-4.024 1.616-7.669 4.233-10.305C6.849 1.636 10.457 0 14.449 0z"/>
        <path fill-rule="nonzero" d="M5.883 14.17l3.998 1.504 1.548 5.016a.47.47 0 0 0 .747.227l2.229-1.831a.66.66 0 0 1 .81-.023l4.02 2.941a.47.47 0 0 0 .738-.287l2.944-14.275a.472.472 0 0 0-.63-.54l-16.408 6.38a.476.476 0 0 0 .004.889zm5.296.704l7.814-4.85c.14-.087.285.104.164.217l-6.448 6.041a1.35 1.35 0 0 0-.415.806l-.22 1.641c-.028.22-.334.24-.394.029l-.844-2.992a.796.796 0 0 1 .343-.892z"/>
    </g>
</svg>
