<svg xmlns="http://www.w3.org/2000/svg" width="29" height="29" viewBox="0 0 29 29">
    <g fill="#232323" fill-rule="evenodd">
        <path d="M23.82 5.023a13.245 13.245 0 0 0-9.398-3.89 13.245 13.245 0 0 0-9.4 3.89 13.24 13.24 0 0 0-3.896 9.406c0 3.666 1.486 6.996 3.897 9.4a13.254 13.254 0 0 0 9.399 3.896c3.673 0 6.995-1.493 9.398-3.897a13.234 13.234 0 0 0 3.897-9.399 13.24 13.24 0 0 0-3.897-9.406zM14.422 0c3.984 0 7.586 1.62 10.197 4.224a14.387 14.387 0 0 1 4.224 10.205c0 3.977-1.613 7.587-4.224 10.198a14.402 14.402 0 0 1-10.197 4.224 14.4 14.4 0 0 1-10.197-4.224A14.38 14.38 0 0 1 0 14.429c0-3.984 1.613-7.594 4.225-10.205A14.4 14.4 0 0 1 14.422 0z"/>
        <path d="M21.541 9.453a6.443 6.443 0 0 1-1.733.471c.631-.375 1.11-.95 1.334-1.653a6.152 6.152 0 0 1-1.924.727 3.011 3.011 0 0 0-2.212-.942c-1.661 0-3.02 1.333-3.02 2.97 0 .24.041.463.089.68a8.575 8.575 0 0 1-6.229-3.108c-.255.448-.415.951-.415 1.494 0 1.038.543 1.948 1.341 2.475a2.927 2.927 0 0 1-1.365-.367v.04c0 .383.072.735.208 1.07a3.012 3.012 0 0 0 2.22 1.837 2.97 2.97 0 0 1-.799.111 2.69 2.69 0 0 1-.567-.064 3.046 3.046 0 0 0 2.82 2.077 6.11 6.11 0 0 1-3.746 1.27c-.248 0-.48-.017-.727-.04a8.718 8.718 0 0 0 4.632 1.333c4.72 0 7.634-3.266 8.392-6.66a8.17 8.17 0 0 0 .2-1.797v-.383a6.246 6.246 0 0 0 1.501-1.541"/>
    </g>
</svg>
